<?xml version="1.0" standalone="no"?>
<!DOCTYPE svg PUBLIC "-//W3C//DTD SVG 20010904//EN"
 "http://www.w3.org/TR/2001/REC-SVG-20010904/DTD/svg10.dtd">
<svg version="1.0" xmlns="http://www.w3.org/2000/svg"
 width="244.000000pt" height="244.000000pt" viewBox="0 0 244.000000 244.000000"
 preserveAspectRatio="xMidYMid meet">
<metadata>
Created by potrace 1.11, written by Peter Selinger 2001-2013
</metadata>
<g transform="translate(0.000000,244.000000) scale(0.100000,-0.100000)"
fill="#000000" stroke="none">
<path d="M10 2185 l0 -245 313 -2 312 -3 3 -963 2 -962 270 0 270 0 0 465 0
465 355 0 355 0 0 -465 0 -465 270 0 270 0 0 1210 0 1210 -270 0 -270 0 0
-500 0 -500 -355 0 -355 0 2 253 3 252 328 3 327 2 0 245 0 245 -915 0 -915 0
0 -245z"/>
</g>
</svg>
